<svg width="1881" height="307" viewBox="0 0 1881 307" fill="none" xmlns="http://www.w3.org/2000/svg">
<g opacity="0.9">
<path d="M1421.32 183.627C1734.65 122.579 1858.33 215.076 1881 268.955C1283.61 291.672 76.8078 327.744 28.7547 290.301C-31.3115 243.498 326.885 164.188 404.663 205.439C482.441 246.691 723.523 174.509 702.8 90.4071C682.078 6.30564 1138.74 -0.537742 1146.66 77.0241C1154.59 154.586 1298.32 211.913 1421.32 183.627Z" fill="#637FE2" fill-opacity="0.4"/>
<path opacity="0.4" d="M1399.32 160.772C1712.65 99.7246 1836.33 192.221 1859 246.101C1261.61 268.817 54.8079 304.889 6.75479 267.446C-53.3114 220.643 304.885 141.333 382.663 182.585C460.442 223.836 701.523 151.654 680.8 67.5523C660.078 -16.5492 1116.74 -23.3926 1124.66 54.1693C1132.59 131.731 1276.32 189.058 1399.32 160.772Z" fill="#637FE2" fill-opacity="0.4"/>
</g>
</svg>
