<svg width="1880" height="306" viewBox="0 0 1880 306" fill="none" xmlns="http://www.w3.org/2000/svg">
<g opacity="0.9">
<path d="M459.378 122.141C146.175 182.954 22.6246 90.4258 0 36.5602C597.093 14.2421 1803.28 -21.0306 1851.28 16.4236C1911.29 63.2413 1553.23 142.278 1475.52 100.997C1397.81 59.7174 1156.81 131.706 1177.46 215.776C1198.12 299.847 741.693 306.391 733.824 228.865C725.955 151.339 582.338 93.9497 459.378 122.141Z" fill="#637FE2" fill-opacity="0.4"/>
<path opacity="0.4" d="M481.351 144.998C168.148 205.811 44.5982 113.283 21.9736 59.4173C619.066 37.0992 1825.25 1.82647 1873.26 39.2806C1933.26 86.0983 1575.2 165.135 1497.49 123.855C1419.78 82.5744 1178.78 154.563 1199.44 238.633C1220.09 322.704 763.667 329.248 755.798 251.722C747.928 174.196 604.311 116.807 481.351 144.998Z" fill="#637FE2" fill-opacity="0.4"/>
</g>
</svg>
