<svg width="143" height="238" viewBox="0 0 143 238" fill="none" xmlns="http://www.w3.org/2000/svg">
<path fill-rule="evenodd" clip-rule="evenodd" d="M72.2359 21.8649C74.9985 18.6222 76.8682 14.6482 76.5558 10.1953C75.6556 -2.63488 57.7956 0.187588 54.3214 6.66315C50.8473 13.1387 51.2601 29.5645 55.7501 30.7219C57.5407 31.1834 61.3553 30.0528 65.2376 27.7127L62.8007 44.9525H77.1894L72.2359 21.8649Z" fill="#B28B67"/>
<path fill-rule="evenodd" clip-rule="evenodd" d="M64.5182 11.6123C63.9674 19.2845 62.5105 23.1206 60.1474 23.1206C56.6025 23.1206 53.5949 20.8702 52.0395 20.8702C50.9057 20.8702 51.1588 22.2891 51.9104 23.3411C52.5304 24.2091 55.5501 25.0457 55.5501 26.3913C55.5501 27.7369 53.1643 26.6958 53.1643 27.4939C53.1643 28.814 52.745 31.2959 55.0361 31.2959C57.3548 31.2959 64.0029 30.451 65.1422 27.0096C65.8775 24.7887 66.3529 20.1865 66.5685 13.203C66.7091 13.1863 66.8523 13.1777 66.9974 13.1777C68.9841 13.1777 70.5946 14.7882 70.5946 16.7748C70.5946 17.7834 70.1795 18.6949 69.5109 19.3481C70.3433 20.5229 71.2761 21.7502 72.345 23.0166C76.3606 20.6074 79.3404 13.5547 75.4145 6.77968C74.3294 3.46068 71.8728 1.68788 68.9715 0.864708C66.6213 -0.118389 64.1815 -0.229234 62.1221 0.360123C58.0849 0.706405 54.4799 1.93744 53.4582 2.66853C53.4582 6.49064 54.1988 7.62465 60.5245 7.5247C62.0788 8.34556 63.2737 9.75908 64.5182 11.6123Z" fill="#191847"/>
<path fill-rule="evenodd" clip-rule="evenodd" d="M81.9855 94.713L60.2497 170.989L44.391 227.208H32.8244L49.6765 94.713H81.9855Z" fill="#191847"/>
<path fill-rule="evenodd" clip-rule="evenodd" d="M87.7983 94.713C88.3011 134.027 90.0154 155.469 90.5433 159.041C91.0711 162.613 99.0527 185.335 114.488 227.208H102.506C82.8554 187.038 71.8861 164.316 69.5978 159.041C67.3095 153.766 60.2476 132.324 49.6111 94.713H87.7983Z" fill="#2F3676"/>
<path fill-rule="evenodd" clip-rule="evenodd" d="M115.559 238L114.96 225.41H102.369C96.3996 229.607 88.6058 233.004 78.9879 235.602V238H101.77L109.564 236.801V238H115.559Z" fill="#191847"/>
<path fill-rule="evenodd" clip-rule="evenodd" d="M46.014 238L45.4145 225.41H32.8244C26.8546 229.607 19.0607 233.004 9.44288 235.602V238H32.2249L40.0187 236.801V238H46.014Z" fill="#191847"/>
<path fill-rule="evenodd" clip-rule="evenodd" d="M31.4102 84.887L13.3125 100.23C8.23598 101.988 4.03461 104.027 0.708388 106.348C-0.0593922 107.153 -0.94466 108.735 2.43793 108.236C5.82053 107.736 9.40095 107.363 9.95132 108.49C10.5017 109.618 8.54068 111.149 9.59869 112.648C10.304 113.647 13.1087 110.822 18.0127 104.172L36.3564 95.017L31.4102 84.887ZM113.361 78.2478L102.742 79.7899C114.14 104.52 120.251 117.599 121.074 119.026C122.926 122.238 120.748 127.831 119.896 130.792C124.2 132.035 122.825 125.386 128.267 127.044C133.234 128.558 137.333 131.99 142.252 127.909C142.857 127.407 143.366 125.767 141.444 124.811C136.655 122.43 129.623 118.072 128.53 116.466C127.04 114.276 121.983 101.537 113.361 78.2478Z" fill="#B28B67"/>
<path fill-rule="evenodd" clip-rule="evenodd" d="M68.9788 34.9595L62.399 32.7835C53.4736 55.0801 40.1623 76.6531 17.9218 94.875L23.4216 104.363C42.9678 92.8495 61.4706 83.9053 68.9788 66.628C71.4988 60.8294 69.1844 41.8929 68.9788 34.9595Z" fill="#C5CFD6"/>
<path fill-rule="evenodd" clip-rule="evenodd" d="M91.578 97.7107C72.7299 99.7091 57.8944 99.7091 47.0714 97.7107C45.7305 97.4631 45.519 95.2181 46.1408 93.6944C55.8244 69.9672 62.4648 49.2639 62.4648 32.7835C64.2416 33.6793 67.3513 33.8135 71.7936 33.1863C83.7325 50.1698 89.2204 69.6565 91.578 97.7107Z" fill="#323337"/>
<path fill-rule="evenodd" clip-rule="evenodd" d="M74.7617 31.7628H69.7862C68.6277 38.5764 64.9737 130.842 53.6936 161.024H114.729C113.405 133.375 102.967 100.161 92.3935 72.3677C101.743 80.9237 109.893 95.4211 116.841 115.86L128.273 112.925C119.773 76.2963 102.296 49.3738 75.8427 32.1579C75.7854 32.0256 75.7284 31.8939 75.6716 31.7628H75.2313C75.0693 31.6588 74.9069 31.5552 74.7442 31.4519L74.7617 31.7628Z" fill="#DDE3E9"/>
</svg>
