<svg width="852" height="249" viewBox="0 0 852 249" fill="none" xmlns="http://www.w3.org/2000/svg">
<g opacity="0.4">
<path d="M208.223 99.3533C66.2568 148.82 10.2551 73.5551 0 29.7392C270.645 11.585 817.375 -17.1069 839.134 13.3594C866.332 51.4424 704.034 115.733 668.81 82.1545C633.586 48.576 524.347 107.134 533.711 175.519C543.074 243.905 336.189 249.228 332.622 186.166C329.055 123.104 263.957 76.4216 208.223 99.3533Z" fill="#637FE2"/>
<path opacity="0.4" d="M218.032 118.036C76.0659 167.503 20.0642 92.2377 9.80908 48.4218C280.454 30.2676 827.184 1.57569 848.943 32.0421C876.141 70.125 713.843 134.416 678.619 100.837C643.395 67.2586 534.156 125.816 543.52 194.202C552.883 262.587 345.998 267.911 342.431 204.849C338.864 141.787 273.766 95.1042 218.032 118.036Z" fill="#637FE2"/>
</g>
</svg>
