<svg width="160" height="238" viewBox="0 0 160 238" fill="none" xmlns="http://www.w3.org/2000/svg">
<path fill-rule="evenodd" clip-rule="evenodd" d="M76.6344 35.4121C73.6897 32.707 71.493 29.2184 71.2747 25.034C70.6457 12.9774 87.6084 13.564 91.5859 19.1997C95.5635 24.8354 97.0579 40.1861 93.0071 41.7781C91.3916 42.4129 87.7083 41.7959 83.8236 40.0599L88.0661 55.843L74.6605 57.489L76.6344 35.4121Z" fill="#915B3C"/>
<path fill-rule="evenodd" clip-rule="evenodd" d="M83.0913 13.1844C81.2889 13.1116 76.5072 13.4965 75.6299 13.6044C75.0693 13.6732 74.4774 13.8759 74.0822 13.4019C73.7585 13.0137 73.7705 12.2885 73.6293 11.8093C73.4653 11.2526 73.2626 10.7081 73.0585 10.1651C72.4777 8.62024 71.7092 7.17698 70.7194 5.85486C68.8623 3.37445 66.365 1.55954 63.3869 0.690687C60.0983 -0.268618 56.5258 -0.142087 53.1992 0.542852C49.6393 1.27576 46.5301 2.8624 43.2723 4.39627C40.1679 5.85793 36.8308 6.69297 33.3834 6.58862C29.9099 6.48354 27.1071 4.95209 24.0162 3.55143C20.852 2.11747 17.3437 1.35628 13.8968 2.05351C10.6793 2.70443 7.84997 4.41336 5.38379 6.53498C3.0764 8.52001 1.25031 10.7916 0.428078 13.7741C-0.456484 16.9824 -0.0437736 20.3341 2.35876 22.7785C5.84115 26.3217 11.5386 26.6489 16.163 25.9791C18.8378 25.5918 21.4117 24.7788 23.8345 23.5773C27.0655 21.9749 29.7364 19.6035 32.695 17.5822C34.0834 16.6337 35.5386 15.8161 37.0892 15.1654C38.5939 14.5338 40.1044 14.1434 41.6313 14.9117C43.2466 15.7246 44.7046 16.5388 46.4891 16.9527C48.201 17.3498 49.9777 17.4713 51.7217 17.2434C55.1149 16.8002 58.3331 15.3308 61.5448 14.2169C64.1639 13.3087 66.9714 12.3793 69.782 12.5981C70.9549 12.6895 72.6852 12.9629 73.2446 14.1014C66.4428 16.2164 64.7669 25.1553 67.5036 31.2302C68.9806 34.5091 75.8325 37.7128 78.0864 35.6169C79.5142 34.2892 78.3797 32.9155 77.6431 32.0072C76.2325 30.2677 75.5319 27.8969 77.5529 26.3171C79.2962 24.9545 81.6051 27.3984 81.6421 27.3908C82.1544 27.2865 86.3141 24.2097 88.9409 20.1426C92.0012 19.9496 92.2162 17.8897 91.2896 16.3404C90.3629 14.7912 85.5817 13.2853 83.0913 13.1844Z" fill="#191847"/>
<path fill-rule="evenodd" clip-rule="evenodd" d="M79.2501 103.5L99.8644 174.536L109.56 227.87H119.292L109.578 103.5H79.2501Z" fill="#784931"/>
<path fill-rule="evenodd" clip-rule="evenodd" d="M69.9858 103.5C71.4242 140.403 70.8569 160.531 70.535 163.883C70.2131 167.236 68.3855 189.691 55.9314 228.996H66.0534C82.5467 191.289 88.3043 168.835 90.196 163.883C92.0877 158.932 97.6746 138.804 105.831 103.5H69.9858Z" fill="#915B3C"/>
<path fill-rule="evenodd" clip-rule="evenodd" d="M78.8076 103.5C84.1697 127.944 93.4439 166.962 106.63 220.554H120.864C121.915 165.547 117.443 129.343 109.698 103.5H78.8076Z" fill="#69A1AC"/>
<path fill-rule="evenodd" clip-rule="evenodd" d="M69.9139 103.5C71.3226 140.403 67.6718 176.759 56.3629 221.129H71.5497C88.0733 183.985 99.9163 147.808 108.01 103.5H69.9139Z" fill="#C5CFD6"/>
<path fill-rule="evenodd" clip-rule="evenodd" d="M54.4887 236.312L55.0472 227.307C58.3171 228.264 62.4128 227.889 67.3341 226.182C72.6258 229.93 79.2872 232.49 87.3186 233.86C87.9313 233.965 88.3433 234.546 88.2387 235.159C88.232 235.199 88.2231 235.238 88.2121 235.277L87.44 238H67.3341H55.6057L54.4887 236.312Z" fill="#191847"/>
<path fill-rule="evenodd" clip-rule="evenodd" d="M107.388 236.312L107.947 227.307C111.217 228.264 115.312 227.889 120.234 226.182C125.525 229.93 132.187 232.49 140.218 233.86C140.831 233.965 141.243 234.546 141.138 235.159C141.131 235.199 141.122 235.238 141.112 235.277L140.339 238H120.234H108.505L107.388 236.312Z" fill="#191847"/>
<path fill-rule="evenodd" clip-rule="evenodd" d="M125.724 90.7249L145.691 100.589C150.714 101.038 155.003 101.941 158.56 103.299C159.442 103.858 160.608 105.098 157.413 105.412C154.219 105.725 150.873 106.198 150.628 107.35C150.383 108.501 152.517 109.451 151.893 111.056C151.478 112.126 148.282 110.19 142.305 105.247L123.519 101.074L125.724 90.7249ZM57.9265 103.141L69.5161 101.145C66.4355 125.491 64.7348 138.42 64.4139 139.933C63.6919 143.337 67.2591 147.699 68.8783 150.095C65.3967 152.453 64.695 146.119 60.3181 149.178C56.3231 151.97 53.6594 156.222 48.0842 154.006C47.3987 153.734 46.4681 152.417 47.9069 151.006C51.4916 147.491 56.505 141.561 57.015 139.81C57.7104 137.423 58.0143 125.2 57.9265 103.141Z" fill="#915B3C"/>
<path fill-rule="evenodd" clip-rule="evenodd" d="M82.2704 48.7405L86.9178 47.0735C107.407 59.2984 119.914 87.5194 144.465 99.3084L140.366 106.736C101.73 108.721 86.0115 74.3802 82.2704 48.7405Z" fill="#1F28CF"/>
<path fill-rule="evenodd" clip-rule="evenodd" d="M71.9987 112.649C91.2141 109.261 105.349 106.768 114.402 105.172C116.34 104.83 115.481 102.097 114.952 100.734C108.847 85.0104 93.1306 69.6713 89.0408 46.4771L76.4715 46.7158C69.2237 64.7704 69.2575 85.4199 71.9987 112.649Z" fill="#DDE3E9"/>
<path fill-rule="evenodd" clip-rule="evenodd" d="M64.0193 65.4024C62.1528 65.205 60.5361 64.2621 59.1691 62.5736C53.2762 55.2953 54.1076 50.5694 58.6277 48.2671C63.1479 45.9648 67.9387 48.2206 75.5506 46.8784C75.9646 46.8054 76.3484 46.7645 76.7019 46.7557L80.5694 46.2991C98.1202 81.5941 105.53 105.901 102.799 119.218L69.4243 125.103C68.2599 130.063 67.0518 134.276 65.7998 137.743L56.7058 139.346C50.9703 111.824 53.4082 87.1758 64.0193 65.4024Z" fill="#2B44FF"/>
<path fill-rule="evenodd" clip-rule="evenodd" d="M73.3202 104.7C75.9184 113.297 78.7482 119.37 81.8098 122.919L69.4242 125.103C70.7825 119.318 72.0811 112.517 73.3202 104.7L73.3202 104.7Z" fill="black" fill-opacity="0.1"/>
</svg>
