<svg width="957" height="271" viewBox="0 0 957 271" fill="none" xmlns="http://www.w3.org/2000/svg">
<g opacity="0.4">
<path d="M725.155 173.534C886.183 122.93 946.813 208.313 957 257.33C652.338 269.162 37.1332 284.194 13.6136 249.66C-15.786 206.493 168.54 140.039 207.095 178.447C245.65 216.856 370.182 155.138 361.747 78.8396C353.311 2.54126 585.939 3.00381 588.023 73.2065C590.108 143.409 661.83 197.303 725.155 173.534Z" fill="#637FE2"/>
<path opacity="0.4" d="M714.703 152.466C875.731 101.861 936.361 187.244 946.548 236.261C641.886 248.094 26.6812 263.126 3.16154 228.592C-26.238 185.425 158.088 118.971 196.643 157.379C235.198 195.787 359.73 134.07 351.295 57.7715C342.859 -18.5268 575.487 -18.0643 577.571 52.1384C579.656 122.341 651.378 176.235 714.703 152.466Z" fill="#637FE2"/>
</g>
</svg>
