<svg width="1427" height="147" viewBox="0 0 1427 147" fill="none" xmlns="http://www.w3.org/2000/svg">
<g opacity="0.2">
<path d="M1309.5 122C1353.9 166.4 1393 140.5 1407 122L1407 6.10352e-05L1206 4.34632e-05L1206 122C1222 103.5 1265.1 77.6001 1309.5 122Z" fill="#7896FF"/>
<path d="M907.5 122.484C951.9 166.884 991 140.984 1005 122.484L1005 0.484436L804 0.484418L804 122.484C820 103.984 863.1 78.0844 907.5 122.484Z" fill="#7896FF"/>
<path d="M706.5 122.484C750.9 166.884 790 140.984 804 122.484L804 0.484436L603 0.484418L603 122.484C619 103.984 662.1 78.0844 706.5 122.484Z" fill="#7896FF"/>
<path d="M505.5 122.484C549.9 166.884 589 140.984 603 122.484L603 0.484436L402 0.484418L402 122.484C418 103.984 461.1 78.0844 505.5 122.484Z" fill="#7896FF"/>
<path d="M103.5 122.484C147.9 166.884 187 140.984 201 122.484L201 0.484436L1.28088e-05 0.484418L2.14322e-06 122.484C16 103.984 59.1 78.0844 103.5 122.484Z" fill="#7896FF"/>
<path d="M304.5 122.484C348.9 166.884 388 140.984 402 122.484L402 0.484436L201 0.484418L201 122.484C217 103.984 260.1 78.0844 304.5 122.484Z" fill="#7896FF"/>
<path d="M1108.5 122.484C1152.9 166.884 1192 140.984 1206 122.484L1206 0.484436L1005 0.484418L1005 122.484C1021 103.984 1064.1 78.0844 1108.5 122.484Z" fill="#7896FF"/>
</g>
<path d="M1329.5 122C1373.9 166.4 1413 140.5 1427 122L1427 6.10352e-05L1226 7.86071e-05L1226 122C1242 103.5 1285.1 77.6001 1329.5 122Z" fill="#7896FF"/>
<path d="M927.5 122.484C971.9 166.884 1011 140.984 1025 122.484L1025 0.484436L824 0.484454L824 122.484C840 103.984 883.1 78.0845 927.5 122.484Z" fill="#7896FF"/>
<path d="M726.5 122.484C770.9 166.884 810 140.984 824 122.484L824 0.484436L623 0.484454L623 122.484C639 103.984 682.1 78.0845 726.5 122.484Z" fill="#7896FF"/>
<path d="M525.5 122.484C569.9 166.884 609 140.984 623 122.484L623 0.484436L422 0.484454L422 122.484C438 103.984 481.1 78.0845 525.5 122.484Z" fill="#7896FF"/>
<path d="M123.5 122.484C167.9 166.884 207 140.984 221 122.484L221 0.484436L20 0.484454L20 122.484C36 103.984 79.1 78.0845 123.5 122.484Z" fill="#7896FF"/>
<path d="M324.5 122.484C368.9 166.884 408 140.984 422 122.484L422 0.484436L221 0.484454L221 122.484C237 103.984 280.1 78.0845 324.5 122.484Z" fill="#7896FF"/>
<path d="M1128.5 122.484C1172.9 166.884 1212 140.984 1226 122.484L1226 0.484436L1025 0.484454L1025 122.484C1041 103.984 1084.1 78.0845 1128.5 122.484Z" fill="#7896FF"/>
</svg>
