<svg width="1417" height="157" viewBox="0 0 1417 157" fill="none" xmlns="http://www.w3.org/2000/svg">
<path d="M97.5 34.9999C53.1 -9.40009 14 16.4999 0 34.9999V157H201V34.9999C185 53.4999 141.9 79.3999 97.5 34.9999Z" fill="#7896FF"/>
<path d="M499.5 34.5155C455.1 -9.88446 416 16.0155 402 34.5155V156.516H603V34.5155C587 53.0155 543.9 78.9155 499.5 34.5155Z" fill="#7896FF"/>
<path d="M700.5 34.5155C656.1 -9.88446 617 16.0155 603 34.5155V156.516H804V34.5155C788 53.0155 744.9 78.9155 700.5 34.5155Z" fill="#7896FF"/>
<path d="M901.5 34.5155C857.1 -9.88446 818 16.0155 804 34.5155V156.516H1005V34.5155C989 53.0155 945.9 78.9155 901.5 34.5155Z" fill="#7896FF"/>
<path d="M1303.5 34.5155C1259.1 -9.88446 1220 16.0155 1206 34.5155V156.516H1407V34.5155C1391 53.0155 1347.9 78.9155 1303.5 34.5155Z" fill="#7896FF"/>
<path d="M1102.5 34.5155C1058.1 -9.88446 1019 16.0155 1005 34.5155V156.516H1206V34.5155C1190 53.0155 1146.9 78.9155 1102.5 34.5155Z" fill="#7896FF"/>
<path d="M298.5 34.5155C254.1 -9.88446 215 16.0155 201 34.5155V156.516H402V34.5155C386 53.0155 342.9 78.9155 298.5 34.5155Z" fill="#7896FF"/>
<g opacity="0.2">
<path d="M107.5 24.9999C63.1 -19.4001 24 6.49991 10 24.9999V147H211V24.9999C195 43.4999 151.9 69.3999 107.5 24.9999Z" fill="#7896FF"/>
<path d="M509.5 24.5155C465.1 -19.8845 426 6.01554 412 24.5155V146.516H613V24.5155C597 43.0155 553.9 68.9155 509.5 24.5155Z" fill="#7896FF"/>
<path d="M710.5 24.5155C666.1 -19.8845 627 6.01554 613 24.5155V146.516H814V24.5155C798 43.0155 754.9 68.9155 710.5 24.5155Z" fill="#7896FF"/>
<path d="M911.5 24.5155C867.1 -19.8845 828 6.01554 814 24.5155V146.516H1015V24.5155C999 43.0155 955.9 68.9155 911.5 24.5155Z" fill="#7896FF"/>
<path d="M1313.5 24.5155C1269.1 -19.8845 1230 6.01554 1216 24.5155V146.516H1417V24.5155C1401 43.0155 1357.9 68.9155 1313.5 24.5155Z" fill="#7896FF"/>
<path d="M1112.5 24.5155C1068.1 -19.8845 1029 6.01554 1015 24.5155V146.516H1216V24.5155C1200 43.0155 1156.9 68.9155 1112.5 24.5155Z" fill="#7896FF"/>
<path d="M308.5 24.5155C264.1 -19.8845 225 6.01554 211 24.5155V146.516H412V24.5155C396 43.0155 352.9 68.9155 308.5 24.5155Z" fill="#7896FF"/>
</g>
</svg>
